<svg xmlns="http://www.w3.org/2000/svg" viewBox="0 0 1020 220" role="img" aria-labelledby="title desc" shape-rendering="geometricPrecision">
  <title id="title">CXBX wordmark</title>
  <desc id="desc">Angular CXBX wordmark with white C and B and green X letters.</desc>
  <path fill="#08c946" fill-rule="evenodd" d="M765 27 L855 112 L854 115 L768 197 L821 197 L882 139 L943 197 L997 197 L909 112 L998 27 L945 27 L884 85 L821 27ZM258 26 L349 113 L263 197 L315 197 L376 139 L379 140 L438 197 L493 197 L405 112 L496 26 L439 26 L378 85 L315 26Z"/>
  <path fill="#08dced" fill-rule="evenodd" d=""/>
  <path fill="#f7f8f7" fill-rule="evenodd" d="M529 29 L529 196 L707 196 L746 158 L746 137 L721 112 L746 86 L746 68 L707 29ZM574 58 L683 57 L703 77 L703 79 L684 98 L584 99 L609 125 L684 125 L704 145 L683 167 L575 167ZM25 73 L25 149 L75 196 L236 196 L198 161 L88 161 L66 139 L66 82 L88 61 L197 61 L233 27 L73 27Z"/>
</svg>
