<svg xmlns="http://www.w3.org/2000/svg" viewBox="0 0 894 894" role="img" aria-labelledby="title desc" shape-rendering="geometricPrecision">
  <title id="title">CXBX circuit icon</title>
  <desc id="desc">Detailed green and cyan circuit-board X emblem.</desc>
  <rect width="100%" height="100%" fill="#030504"/>
  <path fill="#08c946" fill-rule="evenodd" d="M431 515 L350 596 L350 646 L301 695 L290 693 L278 700 L275 711 L278 720 L282 724 L289 727 L302 724 L308 716 L308 704 L360 651 L360 602 L432 529ZM291 702 L297 704 L299 707 L299 713 L292 718 L287 716 L284 711 L286 705ZM60 789 L319 789 L455 651 L591 789 L833 788 L670 621 L670 614 L663 604 L656 601 L649 601 L642 605 L562 526 L561 536 L636 611 L635 623 L637 628 L647 636 L658 636 L663 633 L780 753 L772 761 L699 761 L642 703 L642 722 L680 760 L649 761 L640 751 L605 751 L456 598 L454 598 L304 751 L264 751 L254 761 L218 761 L217 760 L259 718 L259 715 L338 635 L338 600 L439 498 L439 468 L429 459 L429 492 L328 594 L328 629 L197 761 L127 761 L117 751 L230 637 L243 640 L253 635 L258 626 L257 613 L332 538 L333 527 L252 606 L246 602 L235 602 L229 605 L223 613 L222 626ZM239 612 L246 614 L249 618 L249 624 L244 629 L237 629 L232 623 L233 617ZM650 611 L654 611 L660 616 L660 622 L655 627 L650 627 L644 622 L645 615ZM475 458 L466 467 L466 506 L504 546 L503 598 L599 698 L597 703 L599 716 L608 723 L613 724 L621 722 L629 711 L629 702 L625 695 L618 691 L607 691 L514 594 L514 540 L475 499ZM610 700 L616 700 L620 704 L620 710 L616 714 L611 714 L606 710 L606 704ZM604 329 L499 426 L499 454 L603 553 L604 514 L553 465 L553 414 L604 366ZM290 329 L289 366 L340 414 L341 464 L289 515 L289 554 L394 454 L394 425ZM633 214 L535 312 L534 350 L482 403 L482 470 L538 528 L538 578 L634 676 L634 661 L548 573 L548 523 L491 464 L491 409 L545 354 L545 318 L633 230ZM253 199 L253 216 L349 314 L349 354 L412 417 L413 432 L412 478 L306 585 L306 621 L254 674 L254 690 L317 626 L317 590 L421 485 L421 410 L359 348 L359 308ZM619 162 L606 161 L598 166 L595 171 L596 185 L509 273 L506 287 L505 325 L466 365 L466 408 L475 417 L475 372 L515 331 L515 282 L604 192 L614 194 L625 187 L628 174 L624 166ZM611 169 L616 171 L619 175 L618 181 L612 185 L604 180 L604 174ZM288 164 L281 175 L281 182 L284 189 L290 194 L297 196 L305 194 L389 280 L389 328 L416 355 L431 355 L399 321 L399 273 L313 187 L315 174 L308 164 L301 161ZM297 170 L303 172 L306 177 L305 182 L300 186 L295 186 L290 180 L292 173ZM60 103 L222 264 L222 269 L229 279 L235 282 L245 282 L252 279 L331 356 L333 356 L333 347 L257 272 L258 257 L256 253 L249 246 L243 244 L234 245 L227 249 L117 140 L127 128 L201 128 L368 297 L368 342 L402 376 L429 377 L429 417 L439 407 L439 367 L408 366 L378 335 L378 291 L270 182 L263 171 L222 129 L223 128 L255 128 L265 138 L305 138 L454 286 L602 138 L636 138 L646 128 L676 129 L641 165 L642 183 L696 128 L773 128 L780 137 L666 251 L655 245 L646 246 L639 251 L635 259 L636 272 L560 347 L561 357 L641 279 L648 282 L662 280 L669 272 L670 267 L833 103 L585 102 L456 233 L454 233 L324 102ZM650 255 L656 256 L661 263 L660 267 L654 272 L647 270 L644 266 L645 259ZM239 254 L246 256 L249 260 L248 267 L243 271 L237 271 L232 265 L232 260Z"/>
  <path fill="#08dced" fill-rule="evenodd" d="M574 468 L652 546 L651 548 L641 548 L622 530 L622 551 L636 565 L683 565 L767 653 L766 685 L791 710 L791 648 L613 468ZM320 468 L281 469 L102 650 L102 713 L126 689 L127 653 L211 566 L257 566 L271 552 L271 530 L253 548 L241 547ZM101 177 L102 239 L280 411 L320 411 L241 334 L253 333 L271 350 L271 331 L258 318 L211 318 L126 232 L126 200ZM791 176 L766 200 L766 232 L683 318 L636 318 L622 331 L622 350 L640 333 L652 334 L573 411 L613 411 L791 238Z"/>
  <path fill="#f7f8f7" fill-rule="evenodd" d="M241 678 L188 731 L154 731 L137 748 L190 748 L241 698ZM646 670 L646 688 L705 748 L756 748 L740 731 L706 731ZM449 472 L448 520 L411 560 L411 574 L448 537 L458 537 L494 573 L494 560 L457 520 L457 472ZM411 307 L411 321 L448 361 L448 402 L457 402 L457 361 L494 321 L494 308 L457 345 L448 345ZM756 140 L703 140 L646 197 L646 216 L704 157 L739 157ZM137 140 L154 157 L189 157 L241 207 L240 188 L190 140Z"/>
</svg>
