<svg xmlns="http://www.w3.org/2000/svg" viewBox="0 0 1254 1254" role="img" aria-labelledby="title desc" shape-rendering="geometricPrecision">
  <title id="title">CXBX circuit logo</title>
  <desc id="desc">Circuit-board X emblem above the angular CXBX wordmark.</desc>
  <rect width="100%" height="100%" fill="#030504"/>
  <path fill="#08c946" fill-rule="evenodd" d="M885 907 L975 992 L888 1077 L941 1077 L1002 1019 L1063 1077 L1117 1077 L1029 992 L1118 907 L1065 907 L1004 965 L941 907ZM378 906 L469 993 L383 1077 L435 1077 L496 1019 L558 1077 L613 1077 L525 992 L616 906 L559 906 L498 965 L435 906ZM611 575 L530 656 L530 706 L481 755 L470 753 L458 760 L455 771 L458 780 L462 784 L469 787 L482 784 L488 776 L488 764 L540 711 L540 662 L612 589ZM471 762 L479 767 L479 773 L472 778 L467 776 L464 771 L466 765ZM240 849 L499 849 L635 711 L771 849 L1013 848 L850 681 L850 674 L843 664 L829 661 L822 665 L742 586 L741 596 L816 671 L815 683 L817 688 L827 696 L838 696 L843 693 L960 813 L952 821 L879 821 L822 763 L822 782 L860 820 L829 821 L820 811 L785 811 L634 658 L484 811 L444 811 L434 821 L398 821 L439 778 L439 775 L518 695 L518 660 L619 558 L619 528 L609 519 L609 552 L508 654 L508 689 L377 821 L307 821 L297 811 L410 697 L423 700 L433 695 L438 686 L437 673 L512 598 L513 587 L432 666 L426 662 L415 662 L409 665 L403 673 L402 686ZM419 672 L426 674 L429 678 L429 684 L424 689 L417 689 L412 683 L413 677ZM830 671 L834 671 L840 676 L840 682 L835 687 L830 687 L824 682 L825 675ZM655 518 L646 527 L646 566 L684 606 L683 658 L779 758 L777 763 L779 776 L788 783 L801 782 L809 771 L809 762 L805 755 L798 751 L787 751 L694 654 L694 600 L655 559ZM790 760 L796 760 L800 764 L800 770 L796 774 L791 774 L786 770 L786 764ZM784 389 L679 486 L679 514 L783 613 L784 574 L733 525 L733 474 L784 426ZM470 389 L469 426 L520 474 L521 524 L469 575 L469 614 L574 514 L574 485ZM813 274 L715 372 L714 410 L662 463 L662 530 L718 588 L718 638 L814 736 L814 721 L728 633 L728 583 L671 524 L671 469 L725 414 L725 378 L813 290ZM433 259 L433 276 L529 374 L529 414 L592 477 L593 492 L592 538 L486 645 L486 681 L434 734 L434 750 L497 686 L497 650 L601 545 L601 470 L539 408 L539 368ZM799 222 L786 221 L778 226 L775 231 L776 245 L689 333 L686 347 L685 385 L646 425 L646 468 L655 477 L655 432 L695 391 L695 342 L784 252 L794 254 L805 247 L808 234 L804 226ZM791 229 L799 235 L798 241 L792 245 L784 240 L784 234ZM468 224 L461 235 L464 249 L470 254 L477 256 L485 254 L569 340 L569 388 L596 415 L611 415 L579 381 L579 333 L493 247 L495 234 L488 224 L481 221ZM477 230 L483 232 L486 237 L485 242 L480 246 L475 246 L470 240 L472 233ZM240 163 L402 324 L402 329 L409 339 L415 342 L425 342 L432 339 L513 416 L513 407 L437 332 L438 317 L429 306 L423 304 L414 305 L407 309 L297 200 L307 188 L381 188 L548 357 L548 402 L582 436 L609 437 L609 477 L619 467 L619 427 L588 426 L558 395 L558 351 L450 242 L443 231 L403 188 L435 188 L445 198 L485 198 L634 346 L782 198 L816 198 L826 188 L856 189 L821 225 L822 243 L876 188 L953 188 L960 197 L846 311 L835 305 L826 306 L819 311 L815 319 L816 332 L740 407 L741 417 L821 339 L828 342 L842 340 L849 332 L850 327 L1013 163 L765 162 L636 293 L504 162ZM830 315 L836 316 L841 323 L840 327 L834 332 L827 330 L824 326 L825 319ZM419 314 L426 316 L429 320 L428 327 L423 331 L417 331 L412 325 L412 320Z"/>
  <path fill="#08dced" fill-rule="evenodd" d="M754 528 L832 606 L831 608 L821 608 L802 590 L802 611 L816 625 L863 625 L947 713 L946 745 L971 770 L971 708 L793 528ZM500 528 L461 529 L282 710 L282 773 L306 749 L307 713 L391 626 L437 626 L451 612 L451 590 L433 608 L421 607ZM281 237 L282 299 L460 471 L500 471 L421 394 L433 393 L451 410 L451 391 L438 378 L391 378 L306 292 L306 260ZM971 236 L946 260 L946 292 L863 378 L816 378 L802 391 L802 410 L820 393 L832 394 L753 471 L793 471 L971 298Z"/>
  <path fill="#f7f8f7" fill-rule="evenodd" d="M649 909 L649 1076 L827 1076 L866 1038 L866 1017 L841 992 L866 966 L866 948 L827 909ZM694 938 L803 937 L823 957 L804 978 L704 979 L729 1005 L804 1005 L824 1025 L803 1047 L695 1047ZM145 953 L145 1029 L195 1076 L356 1076 L318 1041 L208 1041 L186 1019 L186 962 L208 941 L317 941 L353 907 L193 907ZM421 738 L368 791 L334 791 L317 808 L370 808 L421 758ZM826 730 L826 748 L885 808 L936 808 L920 791 L886 791ZM629 532 L628 580 L591 620 L591 634 L628 597 L638 597 L674 633 L674 620 L637 580 L637 532ZM591 367 L591 381 L628 421 L628 462 L637 462 L637 421 L674 381 L674 368 L637 405 L628 405ZM936 200 L883 200 L826 257 L826 276 L884 217 L919 217ZM317 200 L334 217 L369 217 L421 267 L420 248 L370 200Z"/>
</svg>
